<?xml version="1.0" standalone="no"?>
<!DOCTYPE svg PUBLIC "-//W3C//DTD SVG 20010904//EN"
 "http://www.w3.org/TR/2001/REC-SVG-20010904/DTD/svg10.dtd">
<svg version="1.0" xmlns="http://www.w3.org/2000/svg"
 width="200.000000pt" height="200.000000pt" viewBox="0 0 200.000000 200.000000"
 preserveAspectRatio="xMidYMid meet">

<g transform="translate(0.000000,200.000000) scale(0.100000,-0.100000)"
fill="#000000" stroke="none">
<path d="M1122 1900 c-475 -67 -983 -484 -1088 -895 -28 -109 -24 -276 10
-388 28 -95 77 -199 133 -283 31 -47 40 -54 68 -54 28 0 37 -7 61 -45 38 -59
63 -72 113 -57 62 19 76 15 104 -26 14 -22 39 -45 56 -52 28 -11 36 -9 92 20
80 41 124 44 151 7 28 -38 73 -37 124 4 45 37 110 68 140 69 11 0 29 -9 39
-20 38 -41 96 -18 111 45 15 66 106 124 143 91 26 -24 65 -19 101 11 28 23 32
31 27 65 -9 67 60 126 135 114 33 -5 42 -2 64 19 19 19 24 32 19 48 -19 63
-19 66 31 115 27 26 64 55 82 64 47 25 61 61 38 103 -26 47 -15 77 49 138 47
44 55 57 55 87 0 23 -9 49 -25 70 -32 43 -31 51 6 102 35 50 33 74 -13 131
-27 35 -29 41 -18 68 11 26 10 33 -14 70 -42 63 -174 196 -243 245 -72 53
-166 96 -250 118 -77 20 -219 28 -301 16z m250 -34 c185 -36 356 -148 494
-328 43 -56 53 -78 35 -78 -11 0 -55 57 -64 83 -11 31 -30 20 -23 -14 3 -17 6
-42 6 -56 0 -18 5 -23 19 -21 13 2 33 -15 65 -56 25 -32 48 -68 52 -78 5 -16
-13 -50 -54 -98 -11 -14 -42 46 -42 82 0 67 -24 40 -33 -37 -8 -73 -3 -90 18
-62 11 16 15 14 48 -22 76 -85 79 -116 13 -166 -18 -14 -41 -41 -52 -60 -10
-19 -22 -35 -26 -35 -17 0 -27 38 -18 71 12 42 12 39 -3 39 -6 0 -22 -30 -35
-66 -23 -66 -22 -95 3 -61 12 16 16 15 49 -24 20 -24 36 -51 36 -61 0 -11 -21
-32 -54 -53 -29 -19 -70 -53 -90 -76 -35 -41 -37 -42 -51 -23 -24 32 -27 53
-11 76 17 24 21 52 7 46 -19 -7 -100 -118 -90 -124 6 -3 18 1 27 10 16 14 21
11 56 -36 48 -65 51 -74 35 -94 -9 -11 -22 -13 -49 -9 -45 8 -95 -11 -129 -49
-29 -31 -38 -32 -46 -6 -4 13 1 30 14 46 34 43 13 47 -35 7 -42 -36 -53 -60
-23 -56 8 1 25 -20 39 -48 27 -57 22 -77 -24 -94 -23 -8 -31 -4 -66 30 -26 26
-37 46 -34 58 7 23 -6 22 -58 -5 -54 -27 -51 -25 -44 -37 5 -7 15 -7 33 0 20
7 34 7 50 -2 31 -17 29 -23 -10 -37 -44 -16 -83 -58 -99 -107 -21 -63 -47 -59
-96 14 -39 59 -40 60 -19 74 31 21 13 41 -21 23 -15 -8 -46 -19 -69 -25 -55
-15 -57 -36 -3 -28 35 4 43 2 66 -26 l26 -31 -43 -15 c-38 -12 -72 -32 -149
-89 -25 -18 -46 -6 -75 45 -14 25 -25 47 -25 48 0 2 10 5 22 9 46 11 2 27 -68
24 -74 -3 -90 -20 -28 -28 23 -3 42 -13 52 -28 14 -21 13 -22 -17 -22 -17 0
-60 -14 -95 -32 -60 -30 -66 -30 -88 -16 -13 9 -38 43 -56 76 -31 57 -31 60
-12 65 36 9 21 23 -38 34 -31 6 -63 13 -71 15 -7 1 -16 -3 -18 -10 -3 -7 7
-15 27 -19 21 -4 39 -17 51 -37 l18 -30 -42 -13 c-23 -7 -51 -11 -62 -8 -27 6
-107 135 -94 151 7 9 -4 21 -36 43 -26 17 -50 29 -55 26 -5 -3 9 -29 30 -58
26 -33 36 -55 30 -61 -13 -13 -20 -5 -79 92 -124 206 -160 433 -101 635 16 55
20 42 8 -23 -30 -161 35 -319 166 -405 149 -98 394 -93 662 15 352 141 641
439 715 740 62 247 -55 445 -299 504 -76 19 -43 20 50 2z m-54 -31 c122 -29
211 -95 259 -194 25 -51 28 -66 27 -161 0 -90 -4 -116 -28 -180 -112 -298
-393 -553 -750 -679 -335 -118 -593 -60 -695 158 -23 50 -26 67 -25 161 1 92
5 115 33 192 165 442 765 800 1179 703z"/>
<path d="M1737 1463 c-4 -3 -7 -25 -7 -47 0 -108 -79 -296 -181 -432 -57 -77
-70 -117 -22 -72 37 35 129 176 164 253 63 140 95 348 46 298z"/>
<path d="M1391 806 c-7 -8 -48 -43 -92 -77 -77 -61 -92 -79 -66 -79 13 0 171
122 183 141 11 18 -12 31 -25 15z"/>
<path d="M100 606 c0 -24 94 -110 152 -139 83 -42 160 -57 286 -57 175 0 433
62 399 96 -3 3 -43 -6 -88 -20 -123 -37 -201 -49 -319 -49 -163 0 -277 41
-368 133 -52 53 -62 59 -62 36z"/>
<path d="M1300 1508 c-1 -2 -12 -61 -25 -133 -13 -73 -19 -134 -15 -139 5 -5
11 1 14 15 6 23 46 249 46 256 0 4 -20 4 -20 1z"/>
<path d="M1356 1390 c-4 -28 -10 -58 -13 -66 -4 -12 -2 -15 8 -12 19 6 42 128
24 128 -7 0 -15 -21 -19 -50z"/>
</g>
</svg>
