<?xml version="1.0" standalone="no"?>
<!DOCTYPE svg PUBLIC "-//W3C//DTD SVG 20010904//EN"
 "http://www.w3.org/TR/2001/REC-SVG-20010904/DTD/svg10.dtd">
<svg version="1.0" xmlns="http://www.w3.org/2000/svg"
 width="200.000000pt" height="189.000000pt" viewBox="0 0 200.000000 189.000000"
 preserveAspectRatio="xMidYMid meet">

<g transform="translate(0.000000,189.000000) scale(0.100000,-0.100000)"
fill="#000000" stroke="none">
<path d="M928 1765 c-49 -46 -94 -53 -152 -25 -58 27 -77 23 -97 -20 -10 -19
-29 -46 -44 -60 -23 -22 -36 -25 -97 -25 -77 0 -98 -14 -98 -64 0 -60 -65
-121 -128 -121 -43 0 -53 -18 -46 -86 7 -72 -15 -113 -76 -144 -52 -27 -58
-43 -31 -90 11 -21 21 -55 21 -75 0 -37 -33 -105 -51 -105 -5 0 -15 -11 -21
-25 -10 -22 -7 -29 31 -70 36 -39 41 -50 41 -92 -1 -27 -7 -59 -15 -73 -25
-44 -19 -66 27 -92 65 -35 90 -80 86 -151 -3 -66 1 -72 66 -82 53 -9 102 -58
111 -111 11 -67 14 -69 91 -66 80 4 111 -12 144 -78 25 -48 44 -55 85 -30 62
38 140 23 188 -37 25 -31 48 -29 83 8 58 62 119 72 180 32 36 -23 67 -10 88
37 27 61 67 83 142 76 69 -6 84 3 84 49 0 66 65 135 130 135 48 0 59 20 46 83
-11 59 24 124 80 149 37 16 44 23 44 48 0 16 -4 32 -10 35 -5 3 -14 23 -20 43
-13 50 2 100 40 137 36 35 39 69 6 90 -29 19 -56 72 -56 109 0 15 9 45 20 67
27 51 20 71 -31 93 -58 26 -80 66 -77 141 1 33 -1 65 -5 71 -3 6 -28 14 -54
18 -73 10 -123 60 -123 123 0 50 -20 62 -89 56 -74 -7 -119 17 -146 76 -22 50
-37 56 -85 31 -22 -11 -59 -20 -85 -20 -37 0 -51 6 -84 35 -21 19 -47 35 -57
35 -11 0 -36 -16 -56 -35z m38 -163 c-33 -34 -159 -36 -169 -4 -3 10 -12 34
-21 55 l-17 38 44 -6 c56 -9 117 8 148 41 l24 26 3 -68 c2 -49 -1 -71 -12 -82z
m80 109 c21 -22 96 -30 138 -16 22 8 42 12 44 10 9 -9 -34 -118 -51 -127 -24
-12 -104 -2 -134 18 -19 12 -23 23 -23 69 0 54 6 65 26 46z m-297 -98 c19 -48
19 -52 3 -66 -24 -22 -103 -57 -128 -57 -14 0 -35 17 -58 48 l-37 47 46 7 c54
8 86 26 117 68 25 34 25 34 57 -47z m550 28 c33 -30 111 -56 142 -46 27 9 24
0 -17 -56 -41 -56 -55 -59 -124 -24 -64 33 -71 46 -52 106 9 27 17 49 18 49 1
0 16 -13 33 -29z m-269 -78 c17 -12 47 -18 101 -19 63 -1 81 -6 98 -23 25 -25
86 -56 129 -66 21 -4 37 -16 46 -33 19 -36 85 -98 114 -107 15 -4 22 -14 22
-33 1 -35 33 -106 62 -135 20 -20 23 -34 24 -99 0 -54 6 -84 18 -102 15 -25
15 -28 -1 -59 -11 -21 -18 -58 -19 -105 -1 -63 -5 -77 -27 -100 -34 -37 -57
-85 -57 -120 0 -23 -6 -32 -30 -42 -34 -14 -105 -87 -115 -119 -4 -14 -15 -21
-33 -21 -34 0 -100 -31 -131 -61 -20 -19 -36 -23 -95 -24 -45 -1 -83 -8 -103
-18 -31 -17 -35 -17 -65 0 -22 11 -59 18 -106 19 -64 1 -77 5 -100 27 -31 30
-91 57 -126 57 -16 0 -27 7 -31 21 -10 32 -81 105 -115 119 -22 9 -30 19 -30
39 -1 34 -32 103 -60 131 -19 19 -23 35 -24 94 -1 44 -8 84 -18 105 -16 31
-16 35 -1 65 11 20 17 56 17 100 1 58 5 74 23 92 28 28 63 97 65 130 2 18 14
34 38 49 41 27 88 74 104 107 7 15 24 25 46 29 43 7 114 43 132 66 10 14 29
18 90 19 53 0 84 6 100 17 29 20 29 20 58 0z m-460 -108 c0 -25 -79 -105 -106
-107 -21 -2 -104 49 -104 63 0 5 7 9 15 9 25 0 82 59 100 103 l17 42 39 -45
c21 -25 39 -54 39 -65z m939 58 c21 -41 69 -77 114 -89 l28 -6 -53 -39 c-29
-21 -57 -39 -61 -39 -14 0 -105 90 -110 110 -4 16 45 100 59 100 2 0 12 -17
23 -37z m-1079 -224 c0 -28 -47 -117 -67 -127 -11 -5 -40 -2 -76 8 l-58 16 27
24 c35 33 54 79 54 135 l0 46 60 -41 c40 -27 60 -48 60 -61z m1262 -28 c7 -13
28 -34 46 -46 l33 -23 -59 -20 c-42 -14 -64 -17 -76 -10 -19 11 -66 103 -66
130 0 9 19 30 42 47 l42 31 13 -42 c7 -24 18 -54 25 -67z m-1397 -135 c46 -14
55 -36 43 -109 -10 -68 -20 -77 -89 -77 -33 0 -59 2 -59 3 0 2 7 18 16 36 16
33 16 117 0 154 -9 20 -4 19 89 -7z m1468 -33 c-4 -49 -1 -65 21 -105 l25 -48
-63 0 c-60 0 -64 1 -74 28 -18 46 -23 98 -13 125 7 19 23 30 58 40 26 8 49 15
50 16 0 1 -1 -25 -4 -56z m-1444 -206 c17 -22 32 -114 21 -141 -6 -16 -24 -29
-56 -40 -26 -9 -52 -16 -56 -16 -5 0 -6 19 -3 43 8 49 -11 106 -47 144 l-21
23 75 0 c51 0 79 -4 87 -13z m1470 -18 c-26 -37 -36 -106 -20 -149 9 -26 8
-31 -3 -27 -8 3 -33 11 -56 18 -22 7 -45 21 -51 30 -11 22 -2 93 18 132 12 25
18 27 74 27 l60 0 -22 -31z m-1385 -251 c14 -28 26 -60 26 -69 0 -15 -87 -89
-104 -89 -3 0 -6 14 -6 30 0 43 -34 106 -70 127 -16 9 -30 20 -30 23 0 13 125
47 142 39 9 -5 28 -32 42 -61z m1355 36 c1 -1 -13 -19 -32 -38 -35 -34 -57
-87 -57 -134 0 -21 -2 -21 -50 15 -28 21 -50 45 -50 56 0 24 35 92 61 115 19
18 23 19 72 4 29 -8 54 -16 56 -18z m-1228 -211 c50 -54 51 -63 9 -122 l-38
-53 -20 38 c-25 48 -46 68 -99 92 l-42 19 56 41 c52 38 58 40 82 27 14 -7 38
-26 52 -42z m1076 14 l41 -29 -51 -27 c-40 -20 -58 -38 -78 -75 l-26 -48 -34
47 c-19 26 -32 55 -31 64 8 37 104 116 126 104 6 -4 30 -20 53 -36z m-909
-133 c62 -31 71 -53 47 -124 l-17 -51 -38 35 c-40 36 -108 61 -141 53 -26 -7
-25 -4 21 58 23 31 48 55 58 55 10 0 41 -12 70 -26z m735 -27 l37 -52 -32 -3
c-61 -5 -79 -13 -122 -52 l-43 -39 -17 55 c-9 30 -14 63 -11 74 7 21 98 70
129 69 13 0 35 -19 59 -52z m-237 -41 c1 0 11 -30 22 -64 19 -58 20 -63 4 -57
-47 20 -107 17 -154 -9 l-48 -25 0 63 c0 73 7 83 71 95 35 7 99 5 105 -3z
m-246 -11 c29 -15 30 -19 30 -81 l0 -66 -32 20 c-43 26 -95 34 -137 22 -19 -5
-37 -8 -39 -5 -3 3 3 32 13 65 l18 60 59 0 c33 0 72 -7 88 -15z"/>
<path d="M665 1416 c-115 -75 -218 -223 -250 -358 -87 -369 194 -728 569 -729
101 0 163 11 240 43 65 27 164 96 206 144 47 54 102 143 95 154 -13 21 -32 8
-62 -43 -66 -110 -191 -203 -327 -242 -67 -20 -200 -22 -272 -4 -306 76 -487
385 -403 689 35 127 109 230 219 306 103 70 88 108 -15 40z"/>
</g>
</svg>
