<?xml version="1.0" encoding="iso-8859-1"?>
<!-- Uploaded to: SVG Repo, www.svgrepo.com, Generator: SVG Repo Mixer Tools -->
<svg version="1.1" id="Layer_1" xmlns="http://www.w3.org/2000/svg" xmlns:xlink="http://www.w3.org/1999/xlink" 
	 viewBox="0 0 512 512" xml:space="preserve">
<path style="fill:#C2E2FD;" d="M454.51,245.128c-7.83-16.135-24.392-27.185-43.34-27.185c-9.625,0-18.793,2.826-26.529,7.943
	c-7.737-5.117-16.905-7.943-26.529-7.943c-18.947,0-35.509,11.05-43.34,27.185c-26.492,0.066-48.026,21.638-48.026,48.145
	c0,12.86,5.009,24.95,14.101,34.044l206.47,1.082c9.671-9.068,15.217-21.871,15.217-35.125
	C502.535,266.766,481.001,245.195,454.51,245.128z"/>
<path style="fill:#67B5F8;" d="M454.51,245.128c-7.83-16.135-24.392-27.185-43.34-27.185c-9.625,0-18.793,2.826-26.529,7.943
	c0,21,0,86.146,0,101.432l102.677,1.082c9.671-9.068,15.218-21.871,15.218-35.125C502.535,266.766,481.001,245.195,454.51,245.128z"
	/>
<polygon style="fill:#F4DA49;" points="474.835,512 294.446,512 271.312,318.197 497.97,318.197 "/>
<polygon style="fill:#E69824;" points="474.835,512 384.641,512 384.641,318.197 497.97,318.197 "/>
<polygon style="fill:#F1F1F1;" points="437.676,393.886 331.605,393.886 312.04,320.65 344.299,312.032 357.246,360.495 
	412.035,360.495 424.982,312.032 457.241,320.65 "/>
<polygon style="fill:#D7D7D7;" points="437.676,393.886 384.641,393.886 384.641,360.495 412.035,360.495 424.982,312.032 
	457.241,320.65 "/>
<g>
	<circle style="fill:#C2E2FD;" cx="368.615" cy="23.995" r="23.995"/>
	<circle style="fill:#C2E2FD;" cx="436.622" cy="94.019" r="23.995"/>
	<circle style="fill:#C2E2FD;" cx="344.618" cy="164.051" r="23.995"/>
</g>
<g>
	<path style="fill:#67B5F8;" d="M368.614,47.99c13.252,0,23.995-10.743,23.995-23.995S381.866,0,368.614,0
		C368.614,10.011,368.614,31.232,368.614,47.99z"/>
	<path style="fill:#67B5F8;" d="M436.619,118.018c13.252,0,23.995-10.743,23.995-23.995s-10.743-23.995-23.995-23.995
		C436.619,77.913,436.619,107.181,436.619,118.018z"/>
	<path style="fill:#67B5F8;" d="M344.619,188.046c13.252,0,23.995-10.743,23.995-23.995s-10.743-23.995-23.995-23.995
		C344.619,144.696,344.619,177.545,344.619,188.046z"/>
</g>
<path style="fill:#DD5323;" d="M228.38,263.581H22.445V182.27h205.936v81.311H228.38z"/>
<path style="fill:#BF0F36;" d="M228.38,263.581H125.413V182.27H228.38V263.581z"/>
<rect x="108.719" y="263.58" style="fill:#444444;" width="33.391" height="248.42"/>
<rect x="3.331" y="246.884" style="fill:#8B8B8B;" width="244.168" height="33.391"/>
<rect x="125.415" y="246.884" style="fill:#6F6F6F;" width="122.079" height="33.391"/>
<rect x="260.616" y="299.52" style="fill:#E69824;" width="248.042" height="33.391"/>
<rect x="384.643" y="299.52" style="fill:#DD5323;" width="124.026" height="33.391"/>
</svg>