<svg id="svg" xmlns="http://www.w3.org/2000/svg" xmlns:xlink="http://www.w3.org/1999/xlink" width="400" height="400" viewBox="0, 0, 400,400"><g id="svgg"><path id="path0" d="M187.109 23.449 C 145.426 26.506,106.326 43.638,76.305 71.999 L 69.407 78.516 74.498 83.522 L 79.588 88.528 85.693 82.827 C 133.260 38.397,200.728 25.306,260.915 48.827 C 274.984 54.325,287.652 61.451,300.266 70.964 L 307.172 76.172 300.070 76.397 L 292.969 76.621 292.969 83.675 L 292.969 90.729 311.397 90.482 L 329.825 90.234 331.710 88.042 C 333.583 85.863,333.594 85.744,333.594 67.925 L 333.594 50.000 326.563 50.000 L 319.531 50.000 319.531 58.990 L 319.531 67.981 311.914 61.919 C 277.091 34.209,231.601 20.187,187.109 23.449 M28.480 105.043 C 26.620 106.903,26.563 107.300,26.563 118.324 L 26.563 129.688 15.977 129.688 C 4.995 129.688,1.544 130.479,0.485 133.238 C 0.218 133.934,0.000 170.174,0.000 213.771 L 0.000 293.040 1.918 294.957 L 3.835 296.875 66.655 296.875 L 129.474 296.875 131.534 294.815 C 133.568 292.781,133.594 292.617,133.594 281.534 L 133.594 270.313 144.815 270.313 C 155.898 270.313,156.062 270.287,158.097 268.253 L 160.156 266.193 160.156 206.368 L 160.156 146.543 138.447 124.834 L 116.738 103.125 73.568 103.125 L 30.398 103.125 28.480 105.043 M106.250 134.826 L 106.250 152.464 108.534 154.748 L 110.817 157.031 128.456 157.031 L 146.094 157.031 146.094 206.641 L 146.094 256.250 93.359 256.250 L 40.625 256.250 40.625 186.719 L 40.625 117.188 73.438 117.188 L 106.250 117.188 106.250 134.826 M270.569 123.781 C 266.241 125.688,266.406 122.385,266.406 206.936 L 266.406 285.850 268.292 288.042 L 270.177 290.234 333.072 290.234 L 395.968 290.234 397.984 288.340 L 400.000 286.446 400.000 226.616 L 400.000 166.786 378.120 144.917 L 356.241 123.047 314.644 122.868 C 280.438 122.721,272.607 122.884,270.569 123.781 M128.516 135.156 L 136.299 142.969 128.306 142.969 L 120.313 142.969 120.313 135.156 C 120.313 130.859,120.407 127.344,120.522 127.344 C 120.638 127.344,124.235 130.859,128.516 135.156 M346.094 153.541 C 346.094 178.496,344.953 177.344,369.648 177.344 L 385.938 177.344 385.938 226.953 L 385.938 276.563 333.203 276.563 L 280.469 276.563 280.469 206.641 L 280.469 136.719 313.281 136.719 L 346.094 136.719 346.094 153.541 M26.563 205.115 L 26.563 266.481 28.630 268.397 L 30.697 270.313 75.114 270.313 L 119.531 270.313 119.531 276.563 L 119.531 282.813 66.797 282.813 L 14.063 282.813 14.063 213.281 L 14.063 143.750 20.313 143.750 L 26.563 143.750 26.563 205.115 M368.359 155.469 L 376.143 163.281 368.149 163.281 L 360.156 163.281 360.156 155.469 C 360.156 151.172,360.251 147.656,360.366 147.656 C 360.482 147.656,364.079 151.172,368.359 155.469 M53.125 170.313 L 53.125 177.344 76.563 177.344 L 100.000 177.344 100.000 170.313 L 100.000 163.281 76.563 163.281 L 53.125 163.281 53.125 170.313 M327.121 183.590 C 305.993 187.338,293.761 211.108,302.908 230.643 C 314.816 256.076,351.048 256.739,363.272 231.747 C 375.519 206.708,354.517 178.730,327.121 183.590 M53.125 196.875 L 53.125 203.906 93.359 203.906 L 133.594 203.906 133.594 196.875 L 133.594 189.844 93.359 189.844 L 53.125 189.844 53.125 196.875 M326.563 205.410 L 326.563 212.383 320.675 215.957 C 313.539 220.290,314.063 220.287,314.063 215.991 C 314.063 209.279,321.614 198.438,326.289 198.438 C 326.440 198.438,326.563 201.575,326.563 205.410 M346.853 203.029 C 350.615 206.791,353.125 212.339,353.125 216.893 C 353.125 219.716,352.218 219.619,346.267 216.158 L 340.649 212.891 340.637 206.055 C 340.622 197.773,341.279 197.454,346.853 203.029 M53.125 223.438 L 53.125 230.469 93.359 230.469 L 133.594 230.469 133.594 223.438 L 133.594 216.406 93.359 216.406 L 53.125 216.406 53.125 223.438 M342.377 230.421 C 349.036 234.210,333.747 237.727,325.689 234.261 C 321.245 232.349,321.256 232.321,328.237 228.105 L 333.203 225.105 336.719 227.154 C 338.652 228.280,341.199 229.751,342.377 230.421 M72.867 309.924 C 68.384 310.790,67.969 312.671,67.969 332.137 L 67.969 350.000 75.000 350.000 L 82.031 350.000 82.031 340.965 L 82.031 331.931 87.949 336.766 C 157.277 393.416,260.032 389.621,325.257 328.001 L 332.155 321.484 327.065 316.478 L 321.974 311.472 315.870 317.173 C 268.225 361.675,201.402 374.602,140.530 351.094 C 126.747 345.770,113.938 338.569,101.297 329.036 L 94.390 323.828 101.492 323.603 L 108.594 323.379 108.594 316.377 L 108.594 309.375 91.602 309.481 C 82.256 309.540,73.825 309.739,72.867 309.924 " stroke="none" fill="#000000" fill-rule="evenodd"></path></g></svg>