<?xml version="1.0" encoding="UTF-8"?>
<svg version="1.1" xmlns="http://www.w3.org/2000/svg" width="512" height="512">
<path d="M0 0 C1.05755997 -0.01518677 2.11511993 -0.03037354 3.20472717 -0.04602051 C6.70101749 -0.0884161 10.19609558 -0.09331692 13.69262695 -0.09423828 C16.12775674 -0.10776817 18.5628817 -0.12219557 20.9980011 -0.13748169 C26.10491162 -0.16291217 31.21139517 -0.16817323 36.31835938 -0.16113281 C42.84801147 -0.15504409 49.3753395 -0.21284441 55.9044981 -0.28779411 C60.93621889 -0.33600477 65.96738341 -0.34283717 70.99930763 -0.33813858 C73.40540109 -0.34218077 75.81151656 -0.36060903 78.21738243 -0.3939476 C99.38644114 -0.6571758 99.38644114 -0.6571758 105.38916016 4.62646484 C106.79846408 6.28700395 108.16675923 7.98315938 109.4934082 9.71044922 C111.1872772 11.40210816 112.90248999 13.07260507 114.63598633 14.72363281 C116.43488283 16.51603922 118.23101186 18.31122653 120.0246582 20.10888672 C120.99192027 21.07547284 121.95933053 22.04191068 122.92687988 23.00820923 C124.93179928 25.01167024 126.93493891 27.01688842 128.93676758 29.0234375 C131.499918 31.59233858 134.06760663 34.15664975 136.63660431 36.71970177 C138.62524148 38.70472873 140.6114952 40.69212683 142.59703064 42.68025589 C144.00161172 44.08582404 145.4081993 45.48938616 146.81481934 46.89291382 C147.66330444 47.74455109 148.51178955 48.59618835 149.38598633 49.47363281 C150.13303833 50.22148041 150.88009033 50.969328 151.64978027 51.73983765 C155.20464456 55.53955048 155.74639141 57.75171792 155.76756287 62.84603882 C155.77753799 64.13030258 155.78751312 65.41456635 155.79779053 66.73774719 C155.79868635 68.16403186 155.79934991 69.59031669 155.79980469 71.01660156 C155.80742485 72.51630568 155.8158521 74.01600588 155.82502747 75.51570129 C155.84699336 79.59218315 155.85577414 83.66858998 155.86085391 87.74512434 C155.86449497 90.29150377 155.87073371 92.83786347 155.8778553 95.38423538 C155.90235691 104.26641963 155.91540326 113.14854541 155.91894531 122.03076172 C155.92258132 130.31230086 155.95247933 138.59346956 155.9943499 146.87489545 C156.02903058 153.98326845 156.04449336 161.09151856 156.04519135 168.19997561 C156.04598492 172.44631145 156.05475989 176.69227004 156.08318901 180.93851852 C156.10933199 184.93268393 156.11159653 188.92615832 156.09553337 192.9203701 C156.09371584 194.3857149 156.1004372 195.85109907 156.11635208 197.31635857 C156.13676382 199.31776761 156.12328862 201.31943654 156.10813904 203.32089233 C156.11015037 204.44066153 156.11216169 205.56043072 156.11423397 206.71413231 C155.28977534 210.69325086 153.62183883 212.20138651 150.4934082 214.71044922 C147.26367187 215.27807617 147.26367187 215.27807617 143.66137695 215.19873047 C142.3690918 215.18261719 141.07680664 215.16650391 139.74536133 215.14990234 C138.39052663 215.10813196 137.03570892 215.06580731 135.6809082 215.02294922 C134.30659954 214.99784991 132.93224704 214.97503958 131.55786133 214.95458984 C128.20192845 214.89571383 124.8482273 214.81351342 121.4934082 214.71044922 C121.51959229 215.56276123 121.54577637 216.41507324 121.57275391 217.29321289 C121.65822313 220.47072049 121.72077609 223.64764032 121.76806641 226.82592773 C121.79313437 228.19852023 121.82719903 229.57098024 121.87060547 230.94311523 C121.93158352 232.92095618 121.95701829 234.89979105 121.98168945 236.87841797 C122.00787354 238.06717529 122.03405762 239.25593262 122.06103516 240.48071289 C121.31179066 244.74383351 119.82537162 246.00763424 116.4934082 248.71044922 C113.37773895 249.33965492 113.37773895 249.33965492 109.81359863 249.34536743 C109.15540241 249.35316738 108.49720618 249.36096734 107.81906462 249.36900365 C105.62074481 249.38889589 103.42416169 249.37317267 101.22583008 249.35742188 C99.64700817 249.36419933 98.06819418 249.37310319 96.48939514 249.38397217 C92.20623691 249.40675723 87.92368117 249.3979327 83.64051247 249.38207674 C79.15717577 249.36941354 74.67389049 249.38115902 70.19055176 249.38900757 C62.66168968 249.39810292 55.13307288 249.38611928 47.60424805 249.36230469 C38.90114483 249.33509353 30.19862726 249.34390779 21.49553823 249.37143672 C14.02190944 249.3941301 6.5484569 249.39732678 -0.92519522 249.38424337 C-5.38830254 249.37645008 -9.85113463 249.3754038 -14.31422424 249.39192581 C-18.51039085 249.40637477 -22.70580278 249.39634177 -26.90188789 249.36745453 C-28.44138397 249.36084589 -29.98094361 249.36273772 -31.52041435 249.37376785 C-33.62339274 249.38744573 -35.72395748 249.37028695 -37.82678223 249.34536743 C-39.59103168 249.34253974 -39.59103168 249.34253974 -41.39092255 249.33965492 C-45.60057898 248.48951981 -47.02435903 247.197006 -49.5065918 243.71044922 C-49.99698553 240.74339917 -50.17992671 238.35317131 -50.13478088 235.39146423 C-50.14187527 234.55696969 -50.14896966 233.72247515 -50.15627903 232.86269289 C-50.17387396 230.06790479 -50.15574706 227.27450466 -50.13769531 224.47973633 C-50.14283352 222.47565579 -50.15011405 220.47157976 -50.15937805 218.46751404 C-50.17791148 213.02539653 -50.16494151 207.58376817 -50.14528775 202.14167094 C-50.12891836 196.45003727 -50.13771166 190.758435 -50.14280701 185.06678772 C-50.1473295 175.50937065 -50.13144746 165.95214921 -50.10351562 156.39477539 C-50.07145397 145.33893281 -50.07148256 134.28344289 -50.08873039 123.22757524 C-50.10458283 112.59847008 -50.09787076 101.96949445 -50.08079338 91.34039497 C-50.07391373 86.81373213 -50.0749647 82.28717282 -50.08233833 77.7605114 C-50.08998806 72.43261975 -50.07791783 67.10513049 -50.05048943 61.77730751 C-50.04359108 59.81973846 -50.04352307 57.86213193 -50.05070496 55.9045639 C-50.05936627 53.23674071 -50.04350059 50.57016888 -50.02125549 47.90245056 C-50.02949626 47.12375907 -50.03773703 46.34506759 -50.04622751 45.54277939 C-49.99171012 42.01201027 -49.80017642 40.08751937 -47.59942532 37.26094913 C-43.94537014 34.5538001 -41.71724166 34.59238323 -37.1862793 34.61279297 C-35.92944336 34.61601562 -34.67260742 34.61923828 -33.37768555 34.62255859 C-32.05897461 34.6309375 -30.74026367 34.63931641 -29.3815918 34.64794922 C-28.04174968 34.65296432 -26.70190579 34.65752721 -25.36206055 34.66162109 C-22.07685973 34.67343836 -18.79174782 34.68991304 -15.5065918 34.71044922 C-15.53277588 33.85813721 -15.55895996 33.0058252 -15.5859375 32.12768555 C-15.67140672 28.95017795 -15.73395969 25.77325811 -15.78125 22.5949707 C-15.80631797 21.2223782 -15.84038262 19.8499182 -15.88378906 18.4777832 C-15.94476711 16.49994226 -15.97020189 14.52110738 -15.99487305 12.54248047 C-16.02105713 11.35372314 -16.04724121 10.16496582 -16.07421875 8.94018555 C-14.49424252 -0.04970934 -7.55396442 -0.02913312 0 0 Z M2.4934082 18.71044922 C2.4934082 77.45044922 2.4934082 136.19044922 2.4934082 196.71044922 C47.0434082 196.71044922 91.5934082 196.71044922 137.4934082 196.71044922 C137.4934082 154.80044922 137.4934082 112.89044922 137.4934082 69.71044922 C122.6434082 69.38044922 107.7934082 69.05044922 92.4934082 68.71044922 C86.8684082 63.08544922 86.8684082 63.08544922 86.83398438 59.01196289 C86.80443665 57.64243469 86.80443665 57.64243469 86.77429199 56.24523926 C86.77828003 55.29918823 86.78226807 54.35313721 86.78637695 53.37841797 C86.77175415 52.49883423 86.75713135 51.61925049 86.74206543 50.7130127 C86.69485791 47.44160195 86.69040477 44.16968677 86.6809082 40.89794922 C86.6190332 33.57607422 86.5571582 26.25419922 86.4934082 18.71044922 C58.7734082 18.71044922 31.0534082 18.71044922 2.4934082 18.71044922 Z M104.4934082 31.71044922 C104.4934082 38.31044922 104.4934082 44.91044922 104.4934082 51.71044922 C111.0934082 51.71044922 117.6934082 51.71044922 124.4934082 51.71044922 C119.91137242 46.30539737 119.91137242 46.30539737 115.09887695 41.18310547 C114.53620117 40.61914062 113.97352539 40.05517578 113.39379883 39.47412109 C112.82854492 38.91273438 112.26329102 38.35134766 111.6809082 37.77294922 C111.09631836 37.18449219 110.51172852 36.59603516 109.90942383 35.98974609 C107.57717821 33.07622161 107.57717821 33.07622161 104.4934082 31.71044922 Z M-31.5065918 52.71044922 C-31.5065918 111.45044922 -31.5065918 170.19044922 -31.5065918 230.71044922 C13.0434082 230.71044922 57.5934082 230.71044922 103.4934082 230.71044922 C103.4934082 225.43044922 103.4934082 220.15044922 103.4934082 214.71044922 C102.07408997 214.70680359 100.65477173 214.70315796 99.19244385 214.69940186 C85.83129391 214.6624965 72.4703662 214.60501055 59.10939407 214.52654648 C52.23999896 214.48673434 45.37071875 214.45435302 38.5012207 214.43945312 C31.87454823 214.42505906 25.2481955 214.3899729 18.62166595 214.3421402 C16.09069662 214.32727728 13.55967647 214.31940541 11.02866364 214.31856537 C7.48950518 214.31620881 3.95134131 214.28923323 0.41235352 214.25634766 C-1.16505112 214.2638932 -1.16505112 214.2638932 -2.77432251 214.27159119 C-3.73903473 214.25767838 -4.70374695 214.24376556 -5.69769287 214.22943115 C-6.5346809 214.22574398 -7.37166893 214.22205681 -8.23402023 214.2182579 C-11.43346295 213.50333881 -12.58230573 212.34391211 -14.5065918 209.71044922 C-15.01440048 206.76633072 -15.01440048 206.76633072 -15.02557373 203.269104 C-15.03307498 202.62456858 -15.04057623 201.98003316 -15.0483048 201.31596637 C-15.0685888 199.15839583 -15.0604788 197.00187552 -15.05249023 194.84423828 C-15.06122495 193.29685933 -15.07171038 191.74948942 -15.08381653 190.20213318 C-15.11170995 186.00201909 -15.11508049 181.80219923 -15.11409664 177.60200596 C-15.11722289 173.21236623 -15.14283505 168.82285958 -15.16607666 164.43328857 C-15.20666236 156.12129604 -15.22698339 147.80938201 -15.24005055 139.49730563 C-15.25591191 130.03420272 -15.29432387 120.57123357 -15.33464384 111.10820818 C-15.41707795 91.64232754 -15.4703482 72.17646689 -15.5065918 52.71044922 C-20.7865918 52.71044922 -26.0665918 52.71044922 -31.5065918 52.71044922 Z " fill="#000000" transform="translate(49.506591796875,131.28955078125)"/>
<path d="M0 0 C0.87197021 -0.00426498 1.74394043 -0.00852997 2.64233398 -0.01292419 C3.59616974 -0.01247101 4.55000549 -0.01201782 5.53274536 -0.0115509 C6.53952332 -0.01490952 7.54630127 -0.01826813 8.58358765 -0.02172852 C11.91968003 -0.03124598 15.25572227 -0.03318204 18.59182739 -0.03425598 C20.90726747 -0.03746805 23.22270733 -0.04083209 25.53814697 -0.04434204 C30.3954007 -0.05033533 35.25263663 -0.05218174 40.1098938 -0.05158997 C46.3365332 -0.05148834 52.56305857 -0.06513988 58.78967094 -0.08236217 C63.57316615 -0.09347615 68.35663374 -0.09550936 73.14014053 -0.09498024 C75.43586749 -0.09616129 77.73159514 -0.10059005 80.02730942 -0.10831261 C83.23753615 -0.11810001 86.44751471 -0.11523926 89.65774536 -0.10920715 C91.0824263 -0.11763641 91.0824263 -0.11763641 92.53588867 -0.12623596 C93.85230347 -0.11994423 93.85230347 -0.11994423 95.1953125 -0.11352539 C96.33295201 -0.11434254 96.33295201 -0.11434254 97.49357414 -0.1151762 C115.82377371 1.92966917 138.9433269 29.87888962 150.08389473 43.20736122 C168.9470166 66.97514588 164.79039233 99.85196545 162.84024882 128.38583064 C162.24683589 137.26197171 162.0098926 146.13919787 161.7830193 155.03095651 C161.43618275 168.12165865 160.97883049 181.21260076 160.16491318 194.28330231 C160.07976456 195.67777516 160.00071114 197.07263558 159.9282074 198.46782303 C159.82713477 200.36950918 159.69878149 202.26968706 159.56903076 204.16963196 C159.50258173 205.23145754 159.4361327 206.29328312 159.36767006 207.38728523 C158.57828132 210.75882062 157.41396887 212.00497073 154.72463989 214.13371277 C151.41438576 215.23713081 148.9622333 215.26230452 145.47515869 215.26742554 C143.51089935 215.27382301 143.51089935 215.27382301 141.50695801 215.28034973 C140.05233762 215.28000021 138.59771725 215.27953867 137.14309692 215.27897644 C135.6138399 215.28196804 134.08458364 215.28537057 132.55532837 215.28915405 C128.39827405 215.29799841 124.24124031 215.30033236 120.08417749 215.30096984 C116.6149778 215.30191881 113.14578292 215.30559699 109.67658508 215.30914193 C101.49191728 215.31728823 93.30726049 215.31972602 85.12258911 215.3190155 C76.67758979 215.31841472 68.23265436 215.32896615 59.78767121 215.34475917 C52.53918187 215.35783194 45.29071341 215.36319951 38.04221237 215.36256009 C33.71217154 215.36230502 29.38218745 215.3651614 25.05215836 215.37573814 C20.97937763 215.38541465 16.90670796 215.38550139 12.83392334 215.37822151 C11.33956617 215.3771751 9.84520211 215.37954194 8.35085678 215.38558197 C6.30994798 215.39329647 4.26900138 215.38746016 2.22808838 215.38095093 C1.08619616 215.3814957 -0.05569607 215.38204046 -1.23219109 215.38260174 C-5.30493413 215.04950791 -8.00880281 214.2780832 -11.06320953 211.51834011 C-12.81666703 208.06881595 -12.69577852 204.7620047 -12.66976929 200.97967529 C-12.67586039 200.15082429 -12.68195149 199.32197329 -12.68822718 198.4680056 C-12.70489573 195.68659547 -12.70007591 192.9056412 -12.69528198 190.12419128 C-12.70262005 188.13173444 -12.71120551 186.13928186 -12.72094727 184.14683533 C-12.74319893 178.7315824 -12.74609214 173.31648146 -12.74419975 167.90118909 C-12.74408023 163.38311911 -12.75263701 158.86508155 -12.76097727 154.34702057 C-12.78022429 143.68987718 -12.78309033 133.03281213 -12.77633667 122.37565613 C-12.76969369 111.37492875 -12.79256775 100.3745365 -12.8296504 89.37387711 C-12.86031828 79.9342863 -12.87171062 70.49480345 -12.86781359 61.0551638 C-12.86574318 55.4149647 -12.87127049 49.77502636 -12.89570618 44.13487434 C-12.91792272 38.83159186 -12.91613779 33.52885537 -12.89577866 28.22557068 C-12.89235965 26.27808142 -12.89749584 24.33055577 -12.91176224 22.38311577 C-12.92988358 19.72634722 -12.91725965 17.071445 -12.89682007 14.41473389 C-12.90933792 13.64216407 -12.92185576 12.86959425 -12.93475294 12.07361323 C-12.86917061 8.10368919 -12.42685085 6.32409977 -9.92401886 3.17864895 C-6.5422111 0.56767423 -4.15036627 0.00917991 0 0 Z M5.72463989 18.13371277 C5.72463989 77.20371277 5.72463989 136.27371277 5.72463989 197.13371277 C50.27463989 197.13371277 94.82463989 197.13371277 140.72463989 197.13371277 C140.72463989 155.22371277 140.72463989 113.31371277 140.72463989 70.13371277 C126.53463989 69.80371277 112.34463989 69.47371277 97.72463989 69.13371277 C92.72463989 67.13371277 92.72463989 67.13371277 91.4380188 65.14079285 C90.40051703 60.76744947 90.36565136 56.50232006 90.31057739 52.02043152 C90.29293335 51.16050598 90.27528931 50.30058044 90.2571106 49.41459656 C90.19427151 46.21698858 90.14792763 43.01907358 90.09963989 39.82121277 C89.97588989 32.66433777 89.85213989 25.50746277 89.72463989 18.13371277 C62.00463989 18.13371277 34.28463989 18.13371277 5.72463989 18.13371277 Z M107.72463989 32.13371277 C107.72463989 38.73371277 107.72463989 45.33371277 107.72463989 52.13371277 C114.32463989 52.13371277 120.92463989 52.13371277 127.72463989 52.13371277 C123.14260411 46.72866092 123.14260411 46.72866092 118.33010864 41.60636902 C117.76743286 41.04240417 117.20475708 40.47843933 116.62503052 39.89738464 C116.05977661 39.33599792 115.49452271 38.77461121 114.91213989 38.19621277 C114.32755005 37.60775574 113.74296021 37.01929871 113.14065552 36.41300964 C110.8084099 33.49948516 110.8084099 33.49948516 107.72463989 32.13371277 Z " fill="#000000" transform="translate(353.2753601074219,156.8662872314453)"/>
<path d="M0 0 C1.32091644 0.0001133 1.32091644 0.0001133 2.66851807 0.00022888 C3.61031921 0.00539017 4.55212036 0.01055145 5.52246094 0.01586914 C6.97891022 0.01799156 6.97891022 0.01799156 8.46478271 0.02015686 C11.56216529 0.02574876 14.65947525 0.0382998 17.75683594 0.05102539 C19.85839739 0.05604144 21.95995998 0.06060416 24.06152344 0.06469727 C29.20998886 0.07571554 34.35840009 0.09297465 39.50683594 0.11352539 C39.50683594 6.05352539 39.50683594 11.99352539 39.50683594 18.11352539 C31.09183594 18.60852539 31.09183594 18.60852539 22.50683594 19.11352539 C62.0465638 50.25934455 107.96104193 67.32620196 158.38183594 67.36352539 C159.20353271 67.36420013 160.02522949 67.36487488 160.87182617 67.36557007 C173.65176762 67.34893114 185.96398394 66.73834916 198.50683594 64.11352539 C199.73950195 63.87206787 199.73950195 63.87206787 200.99707031 63.62573242 C240.3789653 55.79598592 276.36911352 36.80737803 305.24560547 8.99682617 C307.96029103 6.40605105 310.09333637 4.82027518 313.50683594 3.11352539 C317.46683594 7.07352539 321.42683594 11.03352539 325.50683594 15.11352539 C292.81047124 56.21752673 235.990447 79.77952898 185.12011719 85.77758789 C118.71441943 91.95152303 57.60935321 72.4748226 6.50683594 30.11352539 C6.17683594 37.37352539 5.84683594 44.63352539 5.50683594 52.11352539 C-0.43316406 52.11352539 -6.37316406 52.11352539 -12.49316406 52.11352539 C-12.59212536 45.65401673 -12.66467742 39.19495045 -12.71289062 32.73486328 C-12.73299173 30.53784497 -12.76027712 28.34088007 -12.79492188 26.14404297 C-12.843505 22.98399673 -12.86614811 19.82465852 -12.88378906 16.66430664 C-12.9044342 15.68391922 -12.92507935 14.7035318 -12.9463501 13.69343567 C-12.94776261 9.38949284 -12.8909778 6.80783844 -10.71875 3.01660156 C-7.35278249 0.13839656 -4.32543321 -0.01242941 0 0 Z " fill="#000000" transform="translate(99.4931640625,395.886474609375)"/>
<path d="M0 0 C0.33 -7.26 0.66 -14.52 1 -22 C6.94 -22 12.88 -22 19 -22 C19.0989613 -15.54049134 19.17151336 -9.08142506 19.21972656 -2.62133789 C19.23982767 -0.42431958 19.26711306 1.77264532 19.30175781 3.96948242 C19.35034093 7.12952866 19.37298405 10.28886687 19.390625 13.44921875 C19.41127014 14.42960617 19.43191528 15.40999359 19.45318604 16.42008972 C19.45459855 20.72403255 19.39781374 23.30568695 17.22558594 27.09692383 C13.85961842 29.97512883 10.83226915 30.1259548 6.50683594 30.11352539 C5.18591949 30.11341209 5.18591949 30.11341209 3.83831787 30.11329651 C2.89651672 30.10813522 1.95471558 30.10297394 0.984375 30.09765625 C-0.47207428 30.09553383 -0.47207428 30.09553383 -1.95794678 30.09336853 C-5.05532935 30.08777663 -8.15263932 30.07522559 -11.25 30.0625 C-13.35156146 30.05748395 -15.45312404 30.05292123 -17.5546875 30.04882812 C-22.70315292 30.03780985 -27.85156416 30.02055074 -33 30 C-33 24.06 -33 18.12 -33 12 C-24.585 11.505 -24.585 11.505 -16 11 C-32.4366856 -1.94733335 -49.78994289 -12.67277046 -69 -21 C-70.19367188 -21.53109375 -71.38734375 -22.0621875 -72.6171875 -22.609375 C-88.6232085 -29.4040535 -105.79812998 -33.6184662 -123 -36 C-123.68022217 -36.0942627 -124.36044434 -36.18852539 -125.0612793 -36.28564453 C-133.77389067 -37.32932818 -142.55041206 -37.24373401 -151.3125 -37.25 C-152.16037079 -37.25067474 -153.00824158 -37.25134949 -153.88180542 -37.25204468 C-166.81668459 -37.2357037 -179.31074769 -36.70473859 -192 -34 C-192.86286621 -33.82307617 -193.72573242 -33.64615234 -194.61474609 -33.46386719 C-233.7668424 -25.29336304 -269.88367377 -6.67691276 -298.73803711 21.11621094 C-301.45307839 23.70694913 -303.58627974 25.29313987 -307 27 C-310.96 23.04 -314.92 19.08 -319 15 C-286.3036353 -26.10400134 -229.48361106 -49.66600359 -178.61328125 -55.6640625 C-112.38952105 -61.82108237 -50.92074966 -42.58826335 0 0 Z " fill="#000000" transform="translate(408,86)"/>
<path d="M0 0 C1.19882812 0.60134766 1.19882812 0.60134766 2.421875 1.21484375 C10.72358633 5.75562828 18.58144248 12.94990569 22 22 C25.53656571 34.79899972 26.68091024 46.54639697 20.60546875 58.81640625 C19.15451691 61.28118772 17.62513518 63.64725738 16 66 C15.4225 66.886875 14.845 67.77375 14.25 68.6875 C6.00762238 77.15883255 -3.84861407 82.00552832 -15.63305664 82.47045898 C-28.79368293 82.63471229 -39.385259 79.05017612 -49.16015625 70 C-59.08796638 59.60827351 -61.51464161 48.45773709 -61.26953125 34.5546875 C-60.8000838 23.28332371 -55.06070729 13.97232197 -47.125 6.15234375 C-34.34953957 -4.25433339 -14.93951111 -7.7430393 0 0 Z M-37 22 C-41.06248616 27.04014054 -43.14710529 31.67289264 -43.0625 38.1875 C-43.05347656 39.08855469 -43.04445313 39.98960937 -43.03515625 40.91796875 C-43.02355469 41.60503906 -43.01195312 42.29210937 -43 43 C-41.33040259 42.34070742 -39.6644652 41.6721442 -38 41 C-37.04480469 40.6390625 -36.08960938 40.278125 -35.10546875 39.90625 C-31.65312914 38.24247187 -29.49371093 36.94360724 -27 34 C-25.59733099 28.12718131 -26.37783806 21.93881854 -27 16 C-30.39369267 16 -34.49315354 19.97491145 -37 22 Z M-9 17 C-9 22.94 -9 28.88 -9 35 C-6.73125 36.340625 -4.4625 37.68125 -2.125 39.0625 C-1.41230957 39.48926025 -0.69961914 39.91602051 0.03466797 40.35571289 C1.65610673 41.29764965 3.32762621 42.15178164 5 43 C5.66 42.67 6.32 42.34 7 42 C6.67669766 34.1114229 5.61853228 27.83009969 0.0625 21.94921875 C-3.85622806 18.05585423 -3.85622806 18.05585423 -9 17 Z M-25.5 53.875 C-26.10714844 54.23980469 -26.71429688 54.60460937 -27.33984375 54.98046875 C-30.73496654 56.9293445 -30.73496654 56.9293445 -33 60 C-26.38186432 63.66040097 -20.55451751 65.12399116 -13 64 C-9.83198047 62.93635234 -6.92215044 61.61620172 -4 60 C-4 59.34 -4 58.68 -4 58 C-6.3110361 56.66407203 -8.62371755 55.33115569 -10.9375 54 C-11.59685547 53.6184375 -12.25621094 53.236875 -12.93554688 52.84375 C-18.99231346 49.36499176 -19.7745944 50.3619592 -25.5 53.875 Z " fill="#000000" transform="translate(445,238)"/>
<path d="M0 0 C33.99 0 67.98 0 103 0 C103 5.94 103 11.88 103 18 C69.01 18 35.02 18 0 18 C0 12.06 0 6.12 0 0 Z " fill="#000000" transform="translate(68,277)"/>
<path d="M0 0 C33.99 0 67.98 0 103 0 C103 5.94 103 11.88 103 18 C69.01 18 35.02 18 0 18 C0 12.06 0 6.12 0 0 Z " fill="#000000" transform="translate(68,243)"/>
<path d="M0 0 C19.8 0 39.6 0 60 0 C60 5.94 60 11.88 60 18 C40.2 18 20.4 18 0 18 C0 12.06 0 6.12 0 0 Z " fill="#000000" transform="translate(68,209)"/>
</svg>
