<?xml version="1.0" encoding="utf-8"?>
<!-- Uploaded to: SVG Repo, www.svgrepo.com, Generator: SVG Repo Mixer Tools -->
<svg width="800px" height="800px" viewBox="0 0 1024 1024" fill="#000000" class="icon"  version="1.1" xmlns="http://www.w3.org/2000/svg"><path d="M96.666 416.044c-4.412 0-8.074-3.578-8.074-7.996 0-4.42 3.5-7.998 7.918-7.998h0.156a7.994 7.994 0 0 1 7.998 7.998 7.994 7.994 0 0 1-7.998 7.996zM128.652 416.044c-4.412 0-8.074-3.578-8.074-7.996 0-4.42 3.498-7.998 7.918-7.998h0.156a7.992 7.992 0 0 1 7.996 7.998 7.992 7.992 0 0 1-7.996 7.996zM160.638 416.044c-4.412 0-8.076-3.578-8.076-7.996 0-4.42 3.5-7.998 7.918-7.998h0.156a7.994 7.994 0 0 1 7.996 7.998 7.99 7.99 0 0 1-7.994 7.996z" fill="" /><path d="M895.824 432.038H64.206a7.992 7.992 0 0 1-7.996-7.996v-15.994c0-13.228 10.76-23.99 23.988-23.99h799.634c13.228 0 23.988 10.76 23.988 23.99v15.994a7.992 7.992 0 0 1-7.996 7.996z m-823.622-15.994h815.626v-7.996c0-4.342-3.654-7.998-7.996-7.998H80.198a8.006 8.006 0 0 0-7.996 7.998v7.996z" fill="" /><path d="M895.824 703.912a7.99 7.99 0 0 1-7.996-7.996V424.042c0-4.42 3.576-7.998 7.996-7.998s7.996 3.578 7.996 7.998v271.876a7.99 7.99 0 0 1-7.996 7.994zM64.206 943.802a7.99 7.99 0 0 1-7.996-7.996V424.042c0-4.42 3.576-7.998 7.996-7.998s7.996 3.578 7.996 7.998v511.766a7.992 7.992 0 0 1-7.996 7.994z" fill="" /><path d="M671.926 943.802H64.206c-4.42 0-7.996-3.576-7.996-7.996s3.576-7.998 7.996-7.998h607.72c4.422 0 7.998 3.578 7.998 7.998s-3.576 7.996-7.998 7.996zM432.044 879.832a7.976 7.976 0 0 1-6.788-3.764l-73.184-117.088-73.184 117.088a7.96 7.96 0 0 1-11.02 2.544 7.99 7.99 0 0 1-2.538-11.01l79.962-127.942c2.92-4.686 10.636-4.686 13.556 0l79.962 127.942a7.988 7.988 0 0 1-2.538 11.01 7.894 7.894 0 0 1-4.228 1.22z" fill="" /><path d="M192.138 879.832a7.996 7.996 0 0 1-6.536-12.588l56.192-79.962a7.99 7.99 0 0 1 6.544-3.406h0.016c2.608 0 5.052 1.282 6.542 3.422l38.874 55.754a8.004 8.004 0 0 1-1.982 11.136c-3.64 2.514-8.622 1.64-11.136-1.984l-32.336-46.384-49.626 70.608a8 8 0 0 1-6.552 3.404zM831.854 623.95H128.176a7.99 7.99 0 0 1-7.996-7.996v-127.942a7.992 7.992 0 0 1 7.996-7.998h703.678a7.992 7.992 0 0 1 7.996 7.998v127.942a7.99 7.99 0 0 1-7.996 7.996z m-695.682-15.992h687.686v-111.95H136.172v111.95z" fill="" /><path d="M448.03 879.832H128.176a7.99 7.99 0 0 1-7.996-7.996V663.93a7.992 7.992 0 0 1 7.996-7.996h319.854a7.992 7.992 0 0 1 7.996 7.996v207.906a7.99 7.99 0 0 1-7.996 7.996zM136.172 863.84h303.862v-191.914H136.172v191.914z" fill="" /><path d="M184.15 751.89c-17.64 0-31.986-14.354-31.986-31.986 0-17.63 14.346-31.984 31.986-31.984s31.984 14.354 31.984 31.984c0 17.634-14.342 31.986-31.984 31.986z m0-47.978c-8.816 0-15.994 7.168-15.994 15.992s7.176 15.994 15.994 15.994 15.992-7.17 15.992-15.994-7.176-15.992-15.992-15.992zM831.854 703.912H512c-4.42 0-7.996-3.576-7.996-7.996s3.576-7.996 7.996-7.996h319.854c4.42 0 7.996 3.576 7.996 7.996s-3.576 7.996-7.996 7.996zM703.912 751.89H512c-4.42 0-7.996-3.576-7.996-7.996s3.576-7.996 7.996-7.996h191.912c4.42 0 7.996 3.576 7.996 7.996s-3.576 7.996-7.996 7.996zM671.926 799.868H512a7.99 7.99 0 0 1-7.996-7.996 7.992 7.992 0 0 1 7.996-7.996h159.926a7.992 7.992 0 0 1 7.998 7.996 7.992 7.992 0 0 1-7.998 7.996zM655.934 847.846H512c-4.42 0-7.996-3.576-7.996-7.996s3.576-7.996 7.996-7.996h143.934c4.42 0 7.996 3.576 7.996 7.996s-3.576 7.996-7.996 7.996zM751.89 543.984H208.138a7.99 7.99 0 0 1-7.996-7.996 7.992 7.992 0 0 1 7.996-7.996h543.752a7.992 7.992 0 0 1 7.996 7.996 7.99 7.99 0 0 1-7.996 7.996zM655.934 575.97H304.096c-4.42 0-7.996-3.576-7.996-7.996s3.576-7.996 7.996-7.996h351.838c4.42 0 7.996 3.576 7.996 7.996s-3.576 7.996-7.996 7.996zM240.11 248.122c-23.92 0-55.958-33.64-55.958-68.046 0-34.14 24.058-59.894 55.958-59.894 31.922 0 55.99 25.754 55.99 59.894 0 34.404-32.064 68.046-55.99 68.046z m0-111.95c-23.162 0-39.966 18.46-39.966 43.902 0 27.424 27.144 52.054 39.966 52.054 13.174 0 39.998-24.098 39.998-52.054-0.002-25.442-16.822-43.902-39.998-43.902z" fill="" /><path d="M308.594 267.362c-0.976 0-1.968-0.17-2.928-0.546-41.552-16.336-41.552-22.084-41.552-26.69a7.992 7.992 0 0 1 7.996-7.998c3.178 0 5.928 1.858 7.216 4.544 3.936 3.108 19.334 10.198 32.196 15.244a8.004 8.004 0 0 1-2.928 15.446z" fill="" /><path d="M272.11 248.122a7.99 7.99 0 0 1-7.996-7.996v-19.648c0-4.418 3.576-7.996 7.996-7.996s7.998 3.578 7.998 7.996v19.648a7.996 7.996 0 0 1-7.998 7.996zM171.656 267.362a8.004 8.004 0 0 1-2.928-15.446c12.862-5.044 28.26-12.134 32.196-15.244a8.006 8.006 0 0 1 7.214-4.544 7.992 7.992 0 0 1 7.996 7.998c0 4.608 0 10.354-41.55 26.69-0.96 0.374-1.952 0.546-2.928 0.546z" fill="" /><path d="M208.138 248.122a7.99 7.99 0 0 1-7.996-7.996v-19.648c0-4.418 3.576-7.996 7.996-7.996s7.996 3.578 7.996 7.996v19.648a7.992 7.992 0 0 1-7.996 7.996z" fill="" /><path d="M240.124 296.1c-57.318 0-103.954-46.636-103.954-103.954s46.634-103.954 103.954-103.954c57.316 0 103.952 46.636 103.952 103.954s-46.634 103.954-103.952 103.954z m0-191.914c-48.502 0-87.96 39.466-87.96 87.96s39.458 87.96 87.96 87.96c48.5 0 87.958-39.466 87.958-87.96s-39.456-87.96-87.958-87.96z" fill="" /><path d="M719.888 248.122c-23.91 0-55.958-33.64-55.958-68.046 0-34.14 24.052-59.894 55.958-59.894 31.924 0 55.99 25.754 55.99 59.894 0 34.404-32.062 68.046-55.99 68.046z m0-111.95c-23.16 0-39.964 18.46-39.964 43.902 0 27.424 27.142 52.054 39.964 52.054 13.166 0 39.998-24.098 39.998-52.054 0-25.442-16.82-43.902-39.998-43.902z" fill="" /><path d="M788.374 267.362a7.98 7.98 0 0 1-2.92-0.546c-41.558-16.336-41.558-22.084-41.558-26.69a7.992 7.992 0 0 1 7.996-7.998 8 8 0 0 1 7.214 4.544c3.936 3.108 19.336 10.198 32.188 15.244a8.02 8.02 0 0 1 4.532 10.37 8.024 8.024 0 0 1-7.452 5.076z" fill="" /><path d="M751.89 248.122a7.99 7.99 0 0 1-7.996-7.996v-19.648c0-4.418 3.576-7.996 7.996-7.996s7.996 3.578 7.996 7.996v19.648a7.992 7.992 0 0 1-7.996 7.996zM651.436 267.362c-3.186 0-6.2-1.92-7.45-5.076a8.018 8.018 0 0 1 4.53-10.37c12.854-5.044 28.254-12.134 32.188-15.244a8.006 8.006 0 0 1 7.216-4.544 7.992 7.992 0 0 1 7.996 7.998c0 4.608 0 10.354-41.558 26.69a8.024 8.024 0 0 1-2.922 0.546z" fill="" /><path d="M687.92 248.122a7.99 7.99 0 0 1-7.996-7.996v-19.648c0-4.418 3.576-7.996 7.996-7.996s7.996 3.578 7.996 7.996v19.648a7.992 7.992 0 0 1-7.996 7.996z" fill="" /><path d="M719.904 296.1c-57.316 0-103.952-46.636-103.952-103.954s46.634-103.954 103.952-103.954 103.954 46.636 103.954 103.954-46.636 103.954-103.954 103.954z m0-191.914c-48.492 0-87.958 39.466-87.958 87.96s39.466 87.96 87.958 87.96c48.494 0 87.96-39.466 87.96-87.96s-39.466-87.96-87.96-87.96z" fill="" /><path d="M480 160.162c-23.918 0-55.958-33.642-55.958-68.046 0-34.14 24.058-59.894 55.958-59.894 31.922 0 55.99 25.754 55.99 59.894-0.002 34.404-32.064 68.046-55.99 68.046z m0-111.95c-23.162 0-39.966 18.46-39.966 43.902 0 27.424 27.144 52.054 39.966 52.054 13.174 0 39.998-24.098 39.998-52.054-0.002-25.442-16.822-43.902-39.998-43.902z" fill="" /><path d="M548.484 179.402c-0.968 0-1.968-0.172-2.922-0.546-41.558-16.336-41.558-22.084-41.558-26.692A7.992 7.992 0 0 1 512 144.168c3.178 0 5.928 1.86 7.214 4.544 3.938 3.108 19.336 10.2 32.19 15.244a8.02 8.02 0 0 1 4.53 10.37 8.018 8.018 0 0 1-7.45 5.076z" fill="" /><path d="M512 160.162a7.992 7.992 0 0 1-7.996-7.998v-19.646c0-4.42 3.576-7.996 7.996-7.996s7.996 3.576 7.996 7.996v19.646A7.992 7.992 0 0 1 512 160.162zM411.546 179.402a8.004 8.004 0 0 1-2.928-15.446c12.862-5.044 28.262-12.134 32.198-15.244a8.002 8.002 0 0 1 7.214-4.544 7.992 7.992 0 0 1 7.996 7.996c0 4.608 0 10.356-41.55 26.692a8.066 8.066 0 0 1-2.93 0.546z" fill="" /><path d="M448.03 160.162a7.992 7.992 0 0 1-7.996-7.998v-19.646c0-4.42 3.576-7.996 7.996-7.996s7.996 3.576 7.996 7.996v19.646a7.992 7.992 0 0 1-7.996 7.998z" fill="" /><path d="M480.014 208.138c-57.318 0-103.952-46.634-103.952-103.952S422.696 0.234 480.014 0.234s103.952 46.634 103.952 103.952-46.634 103.952-103.952 103.952z m0-191.912c-48.5 0-87.96 39.466-87.96 87.96s39.458 87.96 87.96 87.96c48.494 0 87.96-39.466 87.96-87.96s-39.466-87.96-87.96-87.96z" fill="" /><path d="M543.984 352.042a7.99 7.99 0 0 1-6.246-3 8.008 8.008 0 0 1 1.25-11.244l79.962-63.94c3.482-2.734 8.496-2.188 11.244 1.25a8.008 8.008 0 0 1-1.25 11.246l-79.962 63.94a8.056 8.056 0 0 1-4.998 1.748z" fill="" /><path d="M543.984 352.042a7.994 7.994 0 0 1-7.996-7.996v-15.962a7.992 7.992 0 0 1 7.996-7.996 7.992 7.992 0 0 1 7.998 7.996v15.962a7.992 7.992 0 0 1-7.998 7.996z" fill="" /><path d="M559.978 352.074h-15.994a7.994 7.994 0 0 1-7.996-7.996 7.994 7.994 0 0 1 7.996-7.998h15.994a7.992 7.992 0 0 1 7.996 7.998 7.992 7.992 0 0 1-7.996 7.996z" fill="" /><path d="M416.036 352.042a7.972 7.972 0 0 1-4.982-1.75l-79.964-63.94a8.002 8.002 0 0 1-1.256-11.246 8.03 8.03 0 0 1 11.236-1.25l79.962 63.94a8.002 8.002 0 0 1 1.258 11.244 7.986 7.986 0 0 1-6.254 3.002z" fill="" /><path d="M416.044 352.042a7.992 7.992 0 0 1-7.996-7.996v-15.962c0-4.42 3.576-7.996 7.996-7.996s7.998 3.576 7.998 7.996v15.962a7.994 7.994 0 0 1-7.998 7.996z" fill="" /><path d="M416.044 352.074h-15.994a7.992 7.992 0 0 1-7.996-7.996 7.992 7.992 0 0 1 7.996-7.998h15.994a7.994 7.994 0 0 1 7.998 7.998 7.994 7.994 0 0 1-7.998 7.996z" fill="" /><path d="M480.014 336.064a7.99 7.99 0 0 1-7.996-7.996v-95.94c0-4.418 3.576-7.996 7.996-7.996s7.998 3.578 7.998 7.996v95.94a7.992 7.992 0 0 1-7.998 7.996z" fill="" /><path d="M480.014 336.064a7.994 7.994 0 0 1-5.654-13.65l11.322-11.324a7.994 7.994 0 0 1 11.308 0 7.994 7.994 0 0 1 0 11.308l-11.324 11.324a7.96 7.96 0 0 1-5.652 2.342z" fill="" /><path d="M480.014 336.064a7.97 7.97 0 0 1-5.654-2.342l-11.324-11.324a7.994 7.994 0 0 1 0-11.308 7.994 7.994 0 0 1 11.308 0l11.322 11.324a7.994 7.994 0 0 1-5.652 13.65z" fill="" /><path d="M831.854 991.782c-74.95 0-135.938-60.988-135.938-135.938 0-74.952 60.988-135.94 135.938-135.94 74.952 0 135.938 60.988 135.938 135.94 0 74.948-60.988 135.938-135.938 135.938z m0-255.884c-66.142 0-119.946 53.802-119.946 119.946 0 66.14 53.802 119.944 119.946 119.944s119.946-53.802 119.946-119.944c-0.002-66.142-53.804-119.946-119.946-119.946z" fill="" /><path d="M831.854 1023.766c-74.95 0-135.938-60.988-135.938-135.938 0-4.42 3.576-7.996 7.996-7.996s7.996 3.576 7.996 7.996c0 66.14 53.802 119.946 119.946 119.946s119.946-53.804 119.946-119.946c0-4.42 3.576-7.996 7.996-7.996s7.996 3.576 7.996 7.996c0 74.95-60.988 135.938-135.938 135.938z" fill="" /><path d="M703.912 895.824a7.99 7.99 0 0 1-7.996-7.996v-31.984c0-4.422 3.576-7.998 7.996-7.998s7.996 3.576 7.996 7.998v31.984a7.99 7.99 0 0 1-7.996 7.996z" fill="" /><path d="M959.794 895.824a7.99 7.99 0 0 1-7.996-7.996v-31.984c0-4.422 3.576-7.998 7.996-7.998s7.996 3.576 7.996 7.998v31.984a7.99 7.99 0 0 1-7.996 7.996z" fill="" /><path d="M831.854 911.816a7.99 7.99 0 0 1-7.996-7.996v-95.956c0-4.42 3.576-7.998 7.996-7.998s7.996 3.578 7.996 7.998v95.956a7.99 7.99 0 0 1-7.996 7.996z" fill="" /><path d="M831.854 1023.766a7.99 7.99 0 0 1-7.996-7.996v-31.984c0-4.422 3.576-7.998 7.996-7.998s7.996 3.576 7.996 7.998v31.984a7.99 7.99 0 0 1-7.996 7.996z" fill="" /><path d="M895.824 1006.648a7.99 7.99 0 0 1-7.996-7.996v-31.984c0-4.422 3.576-7.998 7.996-7.998s7.996 3.576 7.996 7.998v31.984a7.99 7.99 0 0 1-7.996 7.996z" fill="" /><path d="M767.882 1006.648a7.99 7.99 0 0 1-7.996-7.996v-31.984c0-4.422 3.576-7.998 7.996-7.998s7.996 3.576 7.996 7.998v31.984a7.99 7.99 0 0 1-7.996 7.996z" fill="" /></svg>