<svg fill="#999999" height="200px" width="200px" version="1.1" id="Capa_1" xmlns="http://www.w3.org/2000/svg" xmlns:xlink="http://www.w3.org/1999/xlink" viewBox="0 0 473.567 473.567" xml:space="preserve" stroke="#999999"><g id="SVGRepo_bgCarrier" stroke-width="0"></g><g id="SVGRepo_tracerCarrier" stroke-linecap="round" stroke-linejoin="round"></g><g id="SVGRepo_iconCarrier"> <path d="M457.775,176.389h-38.681c-19.06-57.31-64.401-102.638-121.711-121.696V15.997c0-8.729-7.065-15.793-15.792-15.793h-89.615 c-8.727,0-15.792,7.063-15.792,15.793v38.696C118.874,73.752,73.533,119.08,54.473,176.389H15.792 C7.061,176.389,0,183.453,0,192.182v89.202c0,8.729,7.061,15.791,15.792,15.791h38.681c19.06,57.312,64.401,102.64,121.711,121.699 v38.695c0,8.729,7.065,15.793,15.792,15.793h89.615c8.727,0,15.792-7.063,15.792-15.793v-38.695 c57.31-19.06,102.651-64.388,121.711-121.699h38.681c8.731,0,15.792-7.063,15.792-15.791v-89.202 C473.567,183.453,466.506,176.389,457.775,176.389z M207.768,31.788h58.031v57.619h-58.031V31.788z M31.584,265.592v-57.617h57.618 v57.617H31.584z M265.799,441.777h-58.031v-57.619h58.031V441.777z M297.383,385.271v-16.904c0-8.729-7.065-15.793-15.792-15.793 h-89.615c-8.727,0-15.792,7.064-15.792,15.793v16.904c-39.914-16.287-71.807-48.18-88.092-88.096h16.902 c8.73,0,15.791-7.063,15.791-15.791v-89.202c0-8.73-7.061-15.793-15.791-15.793H88.092c16.286-39.912,48.178-71.806,88.092-88.094 V105.2c0,8.729,7.065,15.793,15.792,15.793h89.615c8.727,0,15.792-7.063,15.792-15.793V88.296 c39.915,16.288,71.807,48.182,88.092,88.094h-16.902c-8.731,0-15.792,7.063-15.792,15.793v89.202 c0,8.729,7.061,15.791,15.792,15.791h16.902C369.19,337.092,337.297,368.984,297.383,385.271z M441.983,265.592h-57.618v-57.617 h57.618V265.592z"></path> </g></svg>